<svg xmlns="http://www.w3.org/2000/svg" style="display: none">
  <symbol id="icon-burger" viewBox="0 0 24 24" fill="none">
    <path d="M3 6h18M3 12h18M3 18h18" stroke="currentColor" stroke-width="2" stroke-linecap="round"/>
  </symbol>

  <symbol id="icon-close" viewBox="0 0 24 24" fill="none">
    <path d="M6 6l12 12M18 6L6 18" stroke="currentColor" stroke-width="2" stroke-linecap="round"/>
  </symbol>

  <symbol id="icon-chevron-left" viewBox="0 0 24 24" fill="none">
    <path d="M15 6l-6 6 6 6" stroke="currentColor" stroke-width="2" stroke-linecap="round" stroke-linejoin="round"/>
  </symbol>

  <symbol id="icon-chevron-right" viewBox="0 0 24 24" fill="none">
    <path d="M9 6l6 6-6 6" stroke="currentColor" stroke-width="2" stroke-linecap="round" stroke-linejoin="round"/>
  </symbol>

  <symbol id="icon-chevron-down" viewBox="0 0 24 24" fill="none">
    <path d="M6 9l6 6 6-6" stroke="currentColor" stroke-width="2" stroke-linecap="round" stroke-linejoin="round"/>
  </symbol>

  <symbol id="icon-check" viewBox="0 0 16 16" fill="none">
    <path d="M3 8.5l3.2 3.2L13 4.5" stroke="currentColor" stroke-width="2" stroke-linecap="round" stroke-linejoin="round"/>
  </symbol>

  <symbol id="icon-phone" viewBox="0 0 24 24" fill="none">
    <path d="M6.6 10.8c1.4 2.8 3.7 5.1 6.5 6.5l2.2-2.2c.3-.3.7-.4 1.1-.3 1.2.4 2.5.6 3.8.6.6 0 1 .4 1 1V20c0 .6-.4 1-1 1C10.1 21 3 13.9 3 5c0-.6.4-1 1-1h3.6c.6 0 1 .4 1 1 0 1.3.2 2.6.6 3.8.1.4 0 .8-.3 1.1l-2.3 2.3z" stroke="currentColor" stroke-width="1.6" stroke-linejoin="round"/>
  </symbol>

  <symbol id="icon-pin" viewBox="0 0 24 24" fill="none">
    <path d="M12 21s7-6.6 7-12a7 7 0 1 0-14 0c0 5.4 7 12 7 12z" stroke="currentColor" stroke-width="1.6" stroke-linejoin="round"/>
    <circle cx="12" cy="9" r="2.4" stroke="currentColor" stroke-width="1.6"/>
  </symbol>

  <symbol id="icon-facebook" viewBox="0 0 24 24" fill="none">
    <path d="M15 8.5h2V5.6c-.3 0-1.4-.1-2.7-.1-2.7 0-4.3 1.6-4.3 4.5V12H7.5v3h2.5v6.9h3.1V15h2.6l.4-3h-3V10c0-.9.3-1.5 1.9-1.5z" fill="currentColor"/>
  </symbol>

  <symbol id="icon-instagram" viewBox="0 0 24 24" fill="none">
    <rect x="4" y="4" width="16" height="16" rx="4.5" stroke="currentColor" stroke-width="1.6"/>
    <circle cx="12" cy="12" r="3.6" stroke="currentColor" stroke-width="1.6"/>
    <circle cx="16.6" cy="7.4" r="1" fill="currentColor"/>
  </symbol>

  <symbol id="icon-x" viewBox="0 0 24 24" fill="none">
    <path d="M5 5l14 14M19 5L5 19" stroke="currentColor" stroke-width="1.7" stroke-linecap="round"/>
  </symbol>

  <symbol id="icon-flower" viewBox="0 0 96 85" fill="none">
    <path d="M19.1532 8.17091C20.6258 5.9463 22.2588 4.06228 24.4979 2.56996C27.6028 0.501308 31.3016 -0.539436 35.0067 0.280782C37.9936 0.942238 40.4235 2.95119 42.0593 5.45761C43.7427 9.00385 45.2186 12.5343 46.3114 16.3098C46.5346 17.0779 46.8177 18.6047 47.1319 20.2984C47.6888 23.3009 48.3434 26.8295 48.9322 27.5843C49.4669 32.7817 45.6134 40.4072 42.3823 44.3786C41.6084 45.3412 40.7588 46.2422 39.8429 47.0732C45.486 56.3025 48.6811 67.0938 49.7022 77.8473C52.1952 69.4939 54.7644 61.1633 57.4128 52.8569C53.2045 46.3652 53.5675 35.8099 55.1473 28.5004C56.7189 21.2219 60.2371 13.3091 66.7671 9.2144C67.4932 8.76032 68.247 8.35244 69.009 7.9572C73.6202 13.7083 75.3516 20.0993 74.5537 27.4055C73.4846 37.2206 67.9757 46.3979 60.2812 52.4943L59.9619 52.7458C59.351 54.9196 58.6477 57.0856 57.9444 59.2527C56.9801 62.2227 56.0153 65.1948 55.2867 68.1914C55.3287 68.1745 55.3713 68.1582 55.4139 68.1419C55.493 68.1118 55.5719 68.0814 55.6498 68.0465C56.5222 67.6565 58.0831 65.2347 59.3832 63.2172C60.0504 62.1818 60.6491 61.2529 61.0508 60.7597C67.8243 52.4354 77.0271 47.4636 87.929 47.6988C89.9793 47.7425 92.4364 47.8198 94.3872 48.394C95.3286 48.6702 95.4878 48.8183 95.9987 49.6353C95.6873 55.4055 88.0882 64.5249 83.7285 68.4381C74.7413 76.5049 63.5757 81.1461 52.2871 85C51.8276 84.8979 51.572 84.8411 51.0541 84.7261L47.1033 83.8485L45.0708 83.397L43.2003 82.8307L43.3277 82.498C43.0947 81.5897 41.7522 81.3353 40.8108 81.1567L40.7987 81.1544C40.7127 81.1382 40.6302 81.1225 40.5523 81.1071C39.4499 80.8874 38.335 80.672 37.2127 80.4551L37.1948 80.4517C24.9066 78.078 11.7004 75.5269 3.57897 65.1545C2.19118 63.3823 -0.249644 59.8739 0.0344537 57.648C1.91538 56.0426 7.46505 55.483 9.8733 55.3481C22.0574 54.664 33.5626 61.1474 41.1337 70.313C41.8873 71.2241 42.5729 72.3473 43.2622 73.4769C44.2332 75.0678 45.212 76.6713 46.3994 77.7128L46.8701 76.8388C45.5498 66.514 43.1483 57.2672 37.4557 48.4625C33.4632 49.6429 29.7602 49.9831 25.6117 49.2238C22.9618 48.7383 18.6856 47.4055 17.085 45.1236C16.62 44.3913 13.9366 43.0666 11.3137 41.7719C9.27972 40.7677 7.28225 39.7816 6.38431 39.1039C2.59048 36.2397 0.714312 32.4359 0.0314028 27.7932L0.0152942 27.4019C-0.156287 22.2292 1.09616 17.6103 4.76905 13.805C8.62292 9.81214 13.7274 8.26286 19.1532 8.17091Z" fill="currentColor"/>
  </symbol>
</svg>
